<svg width="82" height="20" viewBox="0 0 82 20" fill="none" xmlns="http://www.w3.org/2000/svg">
<g clip-path="url(#clip0_1_38)">
<path d="M25.8569 3.65387C25.7096 3.1095 25.4223 2.61322 25.0235 2.21446C24.6247 1.81571 24.1284 1.5284 23.5841 1.38115C21.5911 0.837708 13.5707 0.837708 13.5707 0.837708C13.5707 0.837708 5.5501 0.854199 3.55743 1.39764C3.01308 1.54491 2.51681 1.83224 2.11806 2.23099C1.71931 2.62974 1.43199 3.12601 1.28471 3.67036C0.6819 7.21137 0.448031 12.6067 1.3012 16.0059C1.44848 16.5502 1.7358 17.0465 2.13455 17.4452C2.53331 17.844 3.02957 18.1313 3.57392 18.2786C5.56675 18.822 13.5872 18.822 13.5872 18.822C13.5872 18.822 21.6077 18.822 23.6005 18.2786C24.1449 18.1313 24.6412 17.844 25.0399 17.4452C25.4387 17.0465 25.726 16.5502 25.8733 16.0059C26.5089 12.46 26.7049 7.06797 25.8568 3.65403" fill="white"/>
<path d="M11.0179 13.6837L17.6715 9.82996L11.0179 5.97607V13.6837Z" fill="#FE1E21"/>
<path d="M77.8996 6.05851C78.7724 6.05851 79.4312 6.22311 79.8923 6.53598C80.3535 6.84896 80.6829 7.34309 80.8806 8.01836C81.0782 8.69358 81.1605 9.6157 81.1605 10.8015V12.7286H76.9279V13.3213L76.9939 14.9518C77.0432 15.3141 77.1256 15.5777 77.2573 15.7423C77.3892 15.9071 77.6031 15.9894 77.8832 15.9894C78.262 15.9894 78.5255 15.8413 78.6572 15.5449C78.8054 15.2483 78.8712 14.7542 78.8877 14.079L81.0782 14.2108C81.0946 14.3096 81.0947 14.4413 81.0947 14.6059C81.0947 15.6435 80.8146 16.4177 80.2382 16.9281C79.6618 17.4386 78.8712 17.7021 77.8337 17.7021C76.582 17.7021 75.7092 17.307 75.2151 16.533C74.7211 15.7588 74.4576 14.54 74.4576 12.9096V10.9168C74.5135 8.11715 75.0059 6.06668 77.8996 6.05851ZM47.448 6.27259V14.5236C47.448 15.0178 47.4974 15.3801 47.6126 15.5942C47.8465 16.052 48.4526 15.935 48.782 15.7095C48.9721 15.5809 49.1253 15.4049 49.2266 15.199V6.27243H51.7464V17.5209H49.7701L49.556 16.1375H49.5067C48.9632 17.175 48.1561 17.702 47.0857 17.702C45.4381 17.6979 45.0349 16.5108 44.9389 15.3052L44.9327 15.2202C44.9208 15.0376 44.9138 14.8547 44.9118 14.6718V6.27259H47.448ZM60.4423 6.27259V14.5236C60.4423 15.0178 60.4916 15.3801 60.6069 15.5942C60.8409 16.052 61.4469 15.935 61.7762 15.7095C61.9663 15.5809 62.1196 15.4049 62.2209 15.199V6.27243H64.7407V17.5209H62.7643L62.5502 16.1375H62.5009C61.9575 17.175 61.1503 17.702 60.0799 17.702C58.4323 17.6979 58.0291 16.5108 57.9332 15.3052L57.9269 15.2202C57.915 15.0376 57.9081 14.8547 57.906 14.6718V6.27259H60.4423ZM40.1356 6.05851C40.9591 6.05851 41.6343 6.22311 42.1284 6.56897C42.6224 6.91482 43.0012 7.44193 43.2318 8.16647C43.4624 8.89116 43.5777 9.86276 43.5777 11.0651V12.6954C43.5777 13.8977 43.4624 14.853 43.2318 15.5775C43.0012 16.3024 42.6389 16.8293 42.1284 17.1752C41.618 17.5046 40.9261 17.6857 40.0698 17.6857C39.1803 17.7021 38.4886 17.5211 37.9782 17.1917C37.4677 16.8458 37.1052 16.3187 36.8913 15.5942C36.6771 14.8695 36.5783 13.9142 36.5783 12.7121V11.0814C36.5783 9.8791 36.6935 8.89101 36.9406 8.16631C37.1877 7.42528 37.5664 6.89818 38.0935 6.56897C38.6204 6.23945 39.2956 6.05835 40.1356 6.05835M68.6933 1.5459V7.47476H68.7098C68.9404 7.0466 69.2368 6.70075 69.6486 6.43719C70.0332 6.17875 70.4862 6.04114 70.9496 6.04202C71.559 6.04202 72.0201 6.20662 72.366 6.51949C72.7118 6.84901 72.9589 7.35947 73.107 8.06768C73.2507 8.75373 73.3324 9.70256 73.3374 10.8991L73.3376 11.0158V12.7944C73.3376 14.4577 73.1235 15.693 72.7282 16.4835C72.3166 17.274 71.6907 17.6693 70.8343 17.6693C70.3568 17.6693 69.9285 17.554 69.5333 17.34C69.1839 17.1362 68.8941 16.8441 68.693 16.4931L68.6603 16.434H68.611L68.3475 17.5046H66.2559V1.54606L68.6933 1.5459ZM58.6141 2.12232V4.16432H56.1108V17.5209H53.6405V4.16447H51.1207V2.12248L58.6141 2.12232ZM31.4562 2.12232L31.4578 2.12861C31.4818 2.23557 31.8148 3.7159 32.1811 5.44062L32.21 5.57726L32.2537 5.7838L32.2829 5.92249L32.2975 5.99207L32.3267 6.13155L32.3413 6.20144L32.3704 6.34138L32.4128 6.54604C32.6601 7.74035 32.8962 8.93812 33.0374 9.79695H33.1034C33.2386 9.02655 33.4351 8.04066 33.6446 7.03404L33.6996 6.77111C33.7271 6.63939 33.7549 6.50787 33.7828 6.37656L33.8259 6.17285C34.1104 4.83888 34.4034 3.50674 34.705 2.17651L34.7097 2.15531L34.7172 2.12232H37.237L34.3219 12.5145V17.5046H31.8351V12.5308H31.8186L28.9365 2.12217L31.4562 2.12232ZM40.0861 7.80412C39.7403 7.80412 39.5097 7.98537 39.3616 8.36421C39.2135 8.74305 39.1475 9.31932 39.1475 10.1265V13.6343C39.1475 14.4578 39.2133 15.0671 39.3451 15.4296C39.4769 15.7919 39.7239 15.973 40.0861 15.973C40.432 15.973 40.6791 15.7919 40.8273 15.4296C40.9756 15.0671 41.0414 14.4578 41.0414 13.6343V10.1263C41.0414 9.31932 40.9754 8.7264 40.8273 8.36405C40.6791 7.98537 40.432 7.80412 40.0861 7.80412ZM69.138 8.13364C68.9373 8.31898 68.7945 8.54751 68.7095 8.83321L68.6933 8.89116V15.2812C68.8975 15.627 69.1875 15.8576 69.6979 15.8741C69.9614 15.8741 70.1755 15.7753 70.3403 15.5777C70.5049 15.3801 70.6201 15.0507 70.686 14.5894C70.7494 14.1468 70.7823 13.5372 70.7848 12.7606V11.1969C70.7848 10.3076 70.7518 9.63235 70.7025 9.15472C70.6365 8.67708 70.5544 8.33123 70.4061 8.13364C70.1195 7.72182 69.5003 7.72685 69.138 8.13364ZM77.8503 7.7548C77.5702 7.77124 77.3725 7.8536 77.2573 8.00186C77.1256 8.16647 77.0432 8.41353 76.9939 8.77588C76.9453 9.13084 76.9287 10.3716 76.9279 10.4213V11.2298H78.7725V10.5168V10.5304C78.7714 10.7797 78.7662 10.3858 78.7549 9.90218L78.7533 9.83716C78.7429 9.41214 78.7278 8.93828 78.7066 8.77588C78.6572 8.39704 78.5747 8.13348 78.4431 7.98537C78.3113 7.8371 78.1137 7.7548 77.8502 7.7548" fill="white"/>
</g>
<defs>
<clipPath id="clip0_1_38">
<rect width="80.4169" height="18.2194" fill="white" transform="translate(0.743958 0.837708)"/>
</clipPath>
</defs>
</svg>
